<?xml version="1.0" encoding="UTF-8"?>
<!DOCTYPE svg PUBLIC "-//W3C//DTD SVG 1.1//EN" "http://www.w3.org/Graphics/SVG/1.1/DTD/svg11.dtd">
<!-- Creator: CorelDRAW 2019 (64-Bit) -->
<svg xmlns="http://www.w3.org/2000/svg" xml:space="preserve" width="897px" height="1080px" version="1.1" style="shape-rendering:geometricPrecision; text-rendering:geometricPrecision; image-rendering:optimizeQuality; fill-rule:evenodd; clip-rule:evenodd"
viewBox="0 0 897 1080.57"
 xmlns:xlink="http://www.w3.org/1999/xlink"
 xmlns:xodm="http://www.corel.com/coreldraw/odm/2003">
 <defs>
  <style type="text/css">
   <![CDATA[
    .fil4 {fill:none}
    .fil17 {fill:#FEFEFE}
    .fil5 {fill:#FAFAFA}
    .fil6 {fill:#A82440}
    .fil18 {fill:#FEFEFE;fill-rule:nonzero}
    .fil7 {fill:#A82440;fill-rule:nonzero}
    .fil15 {fill:url(#id2)}
    .fil12 {fill:url(#id3)}
    .fil9 {fill:url(#id4)}
    .fil1 {fill:url(#id5)}
    .fil13 {fill:url(#id6)}
    .fil0 {fill:url(#id7)}
    .fil3 {fill:url(#id8)}
    .fil10 {fill:url(#id9)}
    .fil11 {fill:url(#id10)}
    .fil2 {fill:url(#id11)}
    .fil14 {fill:url(#id12)}
    .fil16 {fill:url(#id13)}
    .fil8 {fill:url(#id14)}
   ]]>
  </style>
   <clipPath id="id0">
    <path d="M359.8 77.18c47.16,-28.11 82.36,-44.45 138.34,-13.5 28.23,-15.79 40.07,-24 59.39,-3.28 170.03,193.32 -151.38,358.32 -109.55,666.29 -26.68,0.9 -53.36,1.81 -80.04,2.71 -53.49,-38.25 -35.69,-146.62 25.28,-279.13 8.46,-12.2 12.75,-31.06 22.34,-46.5 80.6,-129.77 121.33,-317.27 -14.96,-301.88 -11.95,1.35 -27.29,8.41 -42.04,21.25 -0.37,-17.28 1.73,-28.53 1.24,-45.96z"/>
   </clipPath>
   <clipPath id="id1">
    <path d="M492.1 473.69c67.52,-139.95 192.94,-278.47 73.8,-430.26 -6.28,-8 -25.17,-24.18 -37.71,-19.95 0,-3.12 -13.66,-4.45 -17.85,-3.89 -9.55,-11.49 -65.04,-27.33 -86.92,-15.28 -63.48,-0.16 -82.19,23.24 -93.95,38.84 -54.56,29.11 -74.92,100.34 -65,166.61 12.37,82.71 72.93,170.97 117.2,259.1 -6.73,7.99 -57.63,126.46 -53.08,193.28 1.37,11.59 3.25,74.14 61.45,86.44 8.57,1.81 17.82,0.52 29.18,-0.24 59.79,26.34 115.8,0.04 131.55,-28.19 17.68,-31.69 19.9,-73.3 8.38,-107.98 -14.78,-44.52 -35.05,-83.83 -67.05,-138.48zm-6.84 -11.75c-38.77,-66.2 -89.01,-139.13 -114.65,-210.2 -24.23,-67.16 -18.63,-116.98 18.97,-160.76 30.61,-36.9 58.71,-34.91 104.45,-20.67 14.08,-9.56 34.66,-18.35 42.24,-13.46 101.15,65.22 48.97,211.5 -1.47,308.95 -24.34,47.03 -47.43,87.14 -49.54,96.14zm-99.79 14.58c31.67,63.05 77.22,178.74 8.45,230.38 -26.32,17.77 -51.92,-9.76 -55.5,-30.89 -6.69,-39.57 17.5,-143.23 47.05,-199.49z"/>
   </clipPath>
  <linearGradient id="id2" gradientUnits="userSpaceOnUse" x1="316.44" y1="97.35" x2="339.24" y2="66.42">
   <stop offset="0" style="stop-opacity:0.658824; stop-color:#FAFAFA"/>
   <stop offset="1" style="stop-opacity:1; stop-color:#EEEEEF"/>
  </linearGradient>
  <linearGradient id="id3" gradientUnits="userSpaceOnUse" x1="418.04" y1="750.38" x2="449.82" y2="731.53">
   <stop offset="0" style="stop-opacity:0.756863; stop-color:#757475"/>
   <stop offset="1" style="stop-opacity:0.588235; stop-color:#FAFAFA"/>
  </linearGradient>
  <linearGradient id="id4" gradientUnits="userSpaceOnUse" x1="538.91" y1="73.48" x2="575.81" y2="50.69">
   <stop offset="0" style="stop-opacity:0.658824; stop-color:#DCDDDD"/>
   <stop offset="1" style="stop-opacity:0.278431; stop-color:#DCDDDD"/>
  </linearGradient>
  <linearGradient id="id5" gradientUnits="userSpaceOnUse" x1="438.77" y1="71.05" x2="543.5" y2="220.28">
   <stop offset="0" style="stop-opacity:1; stop-color:#474443"/>
   <stop offset="0.678431" style="stop-opacity:0; stop-color:#A2A1A0"/>
   <stop offset="1" style="stop-opacity:0; stop-color:#FEFEFE"/>
  </linearGradient>
  <linearGradient id="id6" gradientUnits="userSpaceOnUse" x1="544.92" y1="745.04" x2="542.71" y2="697.26">
   <stop offset="0" style="stop-opacity:0.447059; stop-color:#474443"/>
   <stop offset="0.368627" style="stop-opacity:1; stop-color:#A09F9E"/>
   <stop offset="1" style="stop-opacity:1; stop-color:#FAFAFA"/>
  </linearGradient>
  <radialGradient id="id7" gradientUnits="userSpaceOnUse" gradientTransform="matrix(-0.0460287 1.92094 -0.665278 -0.0732346 472 -618)" cx="382.3" cy="108.36" r="259.34" fx="382.3" fy="108.36">
   <stop offset="0" style="stop-opacity:1; stop-color:#8B8B8C"/>
   <stop offset="0.490196" style="stop-opacity:1; stop-color:#B4B4B5"/>
   <stop offset="1" style="stop-opacity:1; stop-color:#DCDDDD"/>
  </radialGradient>
  <radialGradient id="id8" gradientUnits="userSpaceOnUse" gradientTransform="matrix(-0.471185 1.14572 -0.508069 -0.0558616 861 -48)" cx="436.89" cy="428.76" r="63.04" fx="436.89" fy="428.76">
   <stop offset="0" style="stop-opacity:0.517647; stop-color:#474443"/>
   <stop offset="0.411765" style="stop-opacity:0.517647; stop-color:#474443"/>
   <stop offset="1" style="stop-opacity:0; stop-color:#474443"/>
  </radialGradient>
  <radialGradient id="id9" gradientUnits="userSpaceOnUse" gradientTransform="matrix(1.19437 -0.2472 0.0720758 0.24722 -91 134)" cx="457.74" cy="27.55" r="15.18" fx="457.74" fy="27.55">
   <stop offset="0" style="stop-opacity:1; stop-color:#B6B6B7"/>
   <stop offset="1" style="stop-opacity:0; stop-color:#C9CACA"/>
  </radialGradient>
  <radialGradient id="id10" gradientUnits="userSpaceOnUse" gradientTransform="matrix(1.19458 -0.367569 0.167744 0.627471 -88 167)" cx="434.95" cy="18.35" r="10.21" fx="434.95" fy="18.35">
   <stop offset="0" style="stop-opacity:1; stop-color:#B6B6B7"/>
   <stop offset="1" style="stop-opacity:0; stop-color:#B6B6B7"/>
  </radialGradient>
  <radialGradient id="id11" gradientUnits="userSpaceOnUse" gradientTransform="matrix(0.343413 0.139507 -0.187804 1.26633 334 -152)" cx="405.93" cy="357.62" r="116.54" fx="405.93" fy="357.62">
   <stop offset="0" style="stop-opacity:1; stop-color:#FEFEFE"/>
   <stop offset="0.631373" style="stop-opacity:1; stop-color:#E3E4E4"/>
   <stop offset="1" style="stop-opacity:1; stop-color:#C9CACA"/>
  </radialGradient>
  <radialGradient id="id12" gradientUnits="userSpaceOnUse" gradientTransform="matrix(1.19643 -1.11583 0.486278 0.563239 -101 391)" cx="319.7" cy="78" r="13.59" fx="319.7" fy="78">
   <stop offset="0" style="stop-opacity:1; stop-color:#DCDDDD"/>
   <stop offset="0.470588" style="stop-opacity:1; stop-color:#DCDDDD"/>
   <stop offset="1" style="stop-opacity:0; stop-color:#DCDDDD"/>
  </radialGradient>
  <radialGradient id="id13" gradientUnits="userSpaceOnUse" gradientTransform="matrix(1.17468 -0.442282 0.180191 0.477156 -69 176)" cx="366.92" cy="27.15" r="11.74" fx="366.92" fy="27.15">
   <stop offset="0" style="stop-opacity:1; stop-color:#EEEEEF"/>
   <stop offset="1" style="stop-opacity:0; stop-color:#EEEEEF"/>
  </radialGradient>
  <radialGradient id="id14" gradientUnits="userSpaceOnUse" gradientTransform="matrix(1.34087 0.148514 -0.112344 1.01759 -132 -62)" cx="410.02" cy="66.76" r="31.61" fx="410.02" fy="66.76">
   <stop offset="0" style="stop-opacity:1; stop-color:#C9CACA"/>
   <stop offset="1" style="stop-opacity:0; stop-color:#C9CACA"/>
  </radialGradient>
 </defs>
 <g id="Layer_x0020_1">
  <metadata id="CorelCorpID_0Corel-Layer"/>
  <path class="fil0" d="M359.8 77.18c47.16,-28.11 82.36,-44.45 138.34,-13.5 28.23,-15.79 40.07,-24 59.39,-3.28 170.03,193.32 -151.38,358.32 -109.55,666.29 -26.68,0.9 -53.36,1.81 -80.04,2.71 -53.49,-38.25 -35.69,-146.62 25.28,-279.13 8.46,-12.2 12.75,-31.06 22.34,-46.5 80.6,-129.77 121.33,-317.27 -14.96,-301.88 -11.95,1.35 -27.29,8.41 -42.04,21.25 -0.37,-17.28 1.73,-28.53 1.24,-45.96z"/>
  <g style="clip-path:url(#id0)">
   <g id="_2493020195328">
    <polygon id="1" class="fil1" points="452.29,-30.86 688.27,193.48 609.75,276.07 373.77,51.73 "/>
    <path class="fil2" d="M338.5 99.79c49.07,-26.79 90.67,-27.47 129.56,-14.58 206.22,79.14 -195.02,525.93 -58.67,632.88 -12.78,17.3 -28.61,9.84 -72.24,9.84 0,-217.52 1.35,-410.62 1.35,-628.14z"/>
    <path class="fil3" d="M419.21 409.69c33.29,-53.73 62.23,-62.96 86.83,-157.92 -4.34,69.28 -48.84,139.64 -70.55,201.33 -30.39,39.43 -49.38,81.04 -79.77,120.47 11.49,-62.65 40.69,-131.43 63.49,-163.88z"/>
   </g>
  </g>
  <path class="fil4" d="M359.8 77.18c47.16,-28.11 82.36,-44.45 138.34,-13.5 28.23,-15.79 40.07,-24 59.39,-3.28 170.03,193.32 -151.38,358.32 -109.55,666.29 -26.68,0.9 -53.36,1.81 -80.04,2.71 -53.49,-38.25 -35.69,-146.62 25.28,-279.13 8.46,-12.2 12.75,-31.06 22.34,-46.5 80.6,-129.77 121.33,-317.27 -14.96,-301.88 -11.95,1.35 -27.29,8.41 -42.04,21.25 -0.37,-17.28 1.73,-28.53 1.24,-45.96z"/>
  <path class="fil5" d="M492.1 473.69c67.52,-139.95 192.94,-278.47 73.8,-430.26 -6.28,-8 -25.17,-24.18 -37.71,-19.95 0,-3.12 -13.66,-4.45 -17.85,-3.89 -9.55,-11.49 -65.04,-27.33 -86.92,-15.28 -63.48,-0.16 -82.19,23.24 -93.95,38.84 -54.56,29.11 -74.92,100.34 -65,166.61 12.37,82.71 72.93,170.97 117.2,259.1 -6.73,7.99 -57.63,126.46 -53.08,193.28 1.37,11.59 3.25,74.14 61.45,86.44 8.57,1.81 17.82,0.52 29.18,-0.24 59.79,26.34 115.8,0.04 131.55,-28.19 17.68,-31.69 19.9,-73.3 8.38,-107.98 -14.78,-44.52 -35.05,-83.83 -67.05,-138.48zm-6.84 -11.75c-38.77,-66.2 -89.01,-139.13 -114.65,-210.2 -24.23,-67.16 -18.63,-116.98 18.97,-160.76 30.61,-36.9 58.71,-34.91 104.45,-20.67 14.08,-9.56 34.66,-18.35 42.24,-13.46 101.15,65.22 48.97,211.5 -1.47,308.95 -24.34,47.03 -47.43,87.14 -49.54,96.14zm-99.79 14.58c31.67,63.05 77.22,178.74 8.45,230.38 -26.32,17.77 -51.92,-9.76 -55.5,-30.89 -6.69,-39.57 17.5,-143.23 47.05,-199.49z"/>
  <g style="clip-path:url(#id1)">
   <g id="_2493020139616">
    <path id="1" class="fil6" d="M489.99 672.93c0.81,-4.56 -0.77,-13.6 3.64,-13.8 3.94,0.48 0.13,9.65 0,14.12 0.96,0.08 2.42,-0.51 3.21,0.43 1.15,2.33 -1.56,4.45 -2.58,6.65 0.94,1.62 1.99,0.84 2.33,2.23 0.56,2.05 -1.34,5.39 -2.47,7.44 2.58,-2.95 5.16,-4.67 7.53,-5.75 0.81,-0.98 0.65,-2.56 2.4,-2.56 1.48,0.22 1.47,1.89 1.93,2.79 1.14,0.31 1.98,-0.69 2.9,0.47 0.86,0.53 0.14,2.54 0.11,3.58 1.17,0.98 2.56,0.25 3.31,2.46 0.03,1.37 -0.99,2.06 -2.57,2.07 -0.06,0.89 -0.12,1.78 -0.18,2.67 -0.52,2.63 -1.21,5.08 -4.35,5.71 -6.7,0.83 -5.13,-9.57 -2.17,-9.83 2.63,-0.25 2.14,4.43 -0.23,2.85 -1.19,3 0.95,5.77 3.83,3.3 2.92,-3.96 -0.09,-9.82 -2.89,-9.57 -2.17,0.12 -3.69,1.56 -5.39,4.06 -1.57,4.42 -3.32,9.48 -4.89,13.9 -6.37,1.23 -14.27,-0.38 -17.46,-3.56 0.19,-6.23 1.4,-8.6 1.6,-14.83 -0.62,-4.82 -3.77,-6.81 -5.27,-6.77 -2.15,0.48 -4.36,3.72 -4.42,6.08 -0.21,8.21 7.09,2.38 4.42,-0.66 -2.52,0.6 -1.6,-3.95 0.74,-2.47 1.6,1.74 1.8,3.78 0.81,6.46 -1.19,2.95 -4.15,3.85 -6.02,2.9 -3.25,-1.69 -3.53,-7.35 -0.76,-10.39 -0.45,-1.24 -2.38,-2.18 -1.34,-3.71 1.64,-1.48 2.81,0.66 4.03,0.68 0.79,-1.47 -0.2,-4.97 1.98,-5.04 1.84,0.01 1.89,2.48 2.8,3.6 0.98,-0.97 1.32,-3.69 2.85,-3.18 2.13,0.47 0.29,3.73 2.21,4.45 1.79,2.3 2.74,4.81 3.94,8.89 -0.02,-1.83 -0.58,-6.69 0.25,-7.84 1.13,-1.05 2.36,-0.6 3.45,-1.26 -0.55,-2.48 -2.18,-4.81 -1.25,-6.79 0.74,-1 2.83,0.11 3.97,0.22z"/>
    <path class="fil6" d="M460.58 708.95c3.03,-5.62 7.75,-6.4 11.33,-4.94 7.31,4.66 -5.41,15.08 -7.09,22.37 5.21,-1.66 9.31,-9.89 13.2,-12.65 -0.37,3.82 -4.1,10.94 -5.41,15.65 5.23,-1.42 9.57,-18.91 19.17,-17.33 4.6,1.35 2.41,9.53 -0.03,11.82 -0.2,-5.37 -2.44,-7.1 -5.01,-4.84 -6.55,7.97 -5.99,18.06 -13.48,22.14 -5.36,0.54 -9.44,0.06 -12.53,-1.21 -6.24,8.04 -14.52,15.28 -21.86,21.1 -0.93,-0.83 -1.98,-2.21 -2.91,-3.03 7.75,-5.56 15.11,-11.93 21.39,-20.06 -2.39,-1.96 -3.88,-4.66 -4.78,-7.87 1.52,-11.01 14.6,-10.8 14.38,-19.23 -0.48,-3.96 -3.59,-2.37 -6.37,-1.92z"/>
    <path class="fil7" d="M427.24 736.97c4.74,-0.39 8.32,-2.26 11.03,-4.75 2.37,-2.16 3.6,-5.26 3.78,-7.76 0.23,-3.17 -2.26,-6.54 -4.86,-10.09 -2.93,-4 -7.99,-8.41 -8.46,-13.61 -0.04,-2.33 0.82,-5.04 2.25,-6.79 0.72,2.1 2.09,3.29 2.58,2.51 1.36,-2.15 1.92,-8.02 6.64,-9.08 -0.46,2.51 -0.37,3.7 1.18,3.58 1.01,0.03 3.47,-6.73 8.85,-4.02 -3.12,1.89 -3.56,2.71 -2.15,3.66 2.46,1.65 4.4,3.61 5.41,6.19 0.6,1.51 0.73,3.3 0.57,4.74 -0.43,3.76 -3.6,6.47 -6.81,6.49 -6.26,0.05 -6.96,-5.34 -4.28,-8.03 -0.19,8.23 9.22,4.07 6.71,-1.68 -0.91,-2.31 -2.97,-4.32 -5.38,-4.51 -5.23,-0.37 -9.01,3.04 -9.02,8.24 -0.01,3.66 2.32,6.7 4.81,10.1 3.06,4.17 5.96,8.13 5.63,12.8 -0.26,3.61 -1.92,7.13 -5.02,9.97 -3.17,2.92 -8.88,4.91 -13.75,4.96l0.29 -2.92z"/>
    <path class="fil7" d="M464.35 762.28c2.26,-4.11 12.56,-13.53 23.55,-14.87 8.2,-1.01 12.42,2.85 22.2,-0.8 2.16,-0.86 4.83,-3.2 5.9,-5.19 -2.22,0.12 -2.78,-0.74 -2.15,-1.39 2,-2.07 7.23,-7.7 6.41,-12.54 -1.46,1.48 -1.88,1.78 -2.57,1.49 -0.41,-0.92 3.95,-5.05 -0.49,-8.53 -0.56,3.61 -1.23,4.8 -2.64,3.86 -2.5,-1.67 -8.89,-2.87 -12.92,0.25 -2.84,2.17 -4.28,7.68 -3.08,10.66 2.33,5.81 8.4,3.87 9.19,0.1 -7.94,3.78 -6.05,-8.44 0.23,-8.31 9.13,-0.23 6.33,12.4 -0.9,15.39 -10.1,4.16 -12.77,0.43 -20.88,1.76 -10.61,1.75 -22.19,10.95 -24.38,18.55l2.53 -0.43z"/>
    <path class="fil6" d="M438.82 748.44c13.43,-8.47 9.96,-15.06 9.46,-17.3 -4.5,3.8 -8.63,8.08 -13.13,11.88 0.46,2.35 1.55,3.99 3.67,5.42z"/>
    <path class="fil6" d="M451.2 759.47c8.3,-13.54 16.76,-14.02 20.09,-12.87 -4.69,4.01 -9.39,8.12 -12.92,13.75 -2.37,-0.42 -5.72,1.22 -7.17,-0.88z"/>
    <path class="fil6" d="M417.55 713.03c9.44,4.23 13.87,11.48 15.06,19.23 3.96,-5.02 2.8,-16.34 -3.73,-21.97 -0.35,1.01 -0.56,1.99 -1.11,2.7 -1.06,-2.12 -3.33,-4.29 -5.47,-5.72 0.07,1.66 0.2,3.6 0.57,5.29 -1.85,-0.18 -3.67,0.21 -5.32,0.47z"/>
    <path class="fil6" d="M413.1 746.99c8.44,-2.3 17.19,0.77 22.33,4.58 -0.29,-4.83 -9.25,-11.84 -16.6,-11.78 0.34,0.75 0.76,1.41 0.8,2.09 -1.86,-0.68 -4.55,-0.78 -6.72,-0.53 0.97,0.91 2.15,1.95 3.34,2.72 -1.29,0.82 -2.23,1.95 -3.15,2.92z"/>
    <path class="fil6" d="M499.19 761.94c-7.42,-4.68 -17.29,-4.39 -23.88,-2.33 2.21,-4.46 13.85,-8.4 21.1,-6.15 -0.64,0.6 -1.31,1.1 -1.63,1.72 2.11,-0.08 4.8,0.62 6.86,1.51 -1.33,0.57 -2.91,1.19 -4.4,1.57 0.96,1.16 1.44,2.5 1.95,3.68z"/>
    <path class="fil6" d="M486.41 541.21c12.25,4.21 6.53,35.89 28.96,27.34 -14.97,-2.22 -16.91,-40.48 -32.63,-39.04 -7.28,1.26 -10.08,12.74 -3.52,19.5 1.44,-6.58 3.64,-8.68 7.19,-7.8z"/>
    <path class="fil6" d="M506.82 517.19c-0.18,12.95 32.12,16.48 19.56,41.84 3.17,-16.8 -35.94,-33.57 -28.87,-48.69 3.64,-6.43 14.43,-1.75 16.56,3.11 -5.74,-1.87 -6.89,1.05 -7.25,3.74z"/>
    <path class="fil6" d="M510.59 574.86c4.89,5.46 5.14,28.62 19.37,20.67 -2.31,-9.04 -4.95,-19.93 -19.37,-20.67z"/>
    <path class="fil6" d="M535.79 609.38c-5.93,4.3 -17.09,12.59 -9.56,23.08 5.04,-3.05 2.35,-13.82 10.25,-10.74 1.04,-2.55 -2.89,-5.01 -0.69,-12.34z"/>
    <path class="fil6" d="M538.23 623.72c3.14,8.93 -0.54,15.26 -8.85,12.91 6.42,-3.68 7.15,-10.96 8.85,-12.91z"/>
    <path class="fil6" d="M541.67 627.89c6.9,5.33 5.35,11.46 -1.66,12.84 3.34,-5.12 1.14,-10.77 1.66,-12.84z"/>
    <path class="fil6" d="M549.94 635.49c3.81,1.56 6.31,7.04 3.3,8.03 -4.67,1.11 -3.82,-5.96 -3.3,-8.03z"/>
    <path class="fil6" d="M454.8 499.82c-1.09,0.12 -1.59,-0.95 -3.92,0.52 -4.11,2.61 -8.39,0.89 -7.94,-2.48 0.74,-1.85 1.84,-2.35 5.64,-1.71 2.92,0.49 6.07,3.19 6.22,3.67z"/>
    <path class="fil6" d="M467.64 481.58c-0.12,-1.02 -1.2,-1.25 -0.34,-3.67 1.51,-4.27 -0.94,-7.79 -3.91,-6.69 -1.52,1.06 -1.75,2.16 -0.38,5.48 1.05,2.55 4.16,4.84 4.63,4.88z"/>
    <path class="fil6" d="M443.08 475.97c-0.39,0.04 -3.08,2.46 -3.03,2.89 0.04,0.32 6.48,6.46 8.07,5.16 0.65,-0.53 4.03,-2.67 4.09,-4.26 0.12,-3.43 -3.98,-7.28 -3.57,-7.75 0.4,-0.47 -4.31,3.19 -4.35,2.9 -0.89,-6.18 -6.22,-12.91 -8.71,-11.16 -3.53,3.72 7.19,11.92 7.5,12.22z"/>
    <path class="fil6" d="M474.25 512.84c-12.38,-5.18 -16.96,-17.47 -19.59,-17.82 -3.71,-0.5 -6.7,-4.59 -4.51,-6.4 1.72,-1.19 4.01,-1.11 5.93,2.23 2.12,3.69 7.68,9.8 12.34,14.72 -1.06,-1.56 -2.13,-3.21 -3.19,-4.87 -4,-6.26 -7.95,-12.03 -7.29,-13.12 2.69,0.99 8.33,4.69 14,8.67l1.15 0.82c-4.46,-4.58 -9.63,-9.65 -12.92,-11.75 -3.25,-2.07 -3.22,-4.35 -1.95,-6.02 1.91,-2.1 5.86,1.08 6.19,4.8 0.23,2.65 12.36,7.81 16.93,20.5 3.13,3.98 3.86,7.87 -0.89,10.5 -1.97,0.74 -4.05,-0.25 -6.2,-2.26z"/>
    <path class="fil6" d="M550.24 625.52c-0.19,8.71 5.56,11.09 11.05,6.26 -6.09,-0.34 -9.11,-5.45 -11.05,-6.26z"/>
    <path class="fil6" d="M550.99 618.37c3.19,8.38 10.05,11.09 15.26,4.21 -7.4,0.96 -11.76,-4.69 -15.26,-4.21z"/>
    <path class="fil6" d="M544.65 604.42c7.24,-1.58 21,-4.43 23.01,8.2 -5.73,1.75 -11.45,-6.42 -14.91,1.55 -2.53,-0.92 -1.39,-6.52 -8.1,-9.75z"/>
    <path class="fil6" d="M472.26 553.08c5.49,4.78 8.73,11.67 2.75,19.86 12.88,-3.06 8.75,-17.9 -2.75,-19.86z"/>
    <path class="fil6" d="M533.98 557.97c2.36,6.43 19.1,24.88 5.7,32.26 -4.59,-8.12 -11.85,-21.26 -5.7,-32.26z"/>
    <path class="fil6" d="M545.35 625.19c1.77,-1.87 1.5,-15.84 -3.97,-16.35 -2.8,-8.59 -6.05,-16.89 -9.68,-24.89 -3.72,-8.23 -7.85,-16.13 -12.3,-23.69 4.57,-4.86 -12.93,-29.18 -24.48,-33.63 0.01,2.09 13.27,35.95 22.62,34.5 4.46,7.56 8.58,15.45 12.3,23.66 3.6,7.95 6.83,16.23 9.63,24.8 -2.59,3.11 -0.1,13.13 5.88,15.6z"/>
    <path class="fil7" d="M500.84 609.74c3.76,-4.3 2.26,-11.36 1.56,-16.42 -1.55,-4.89 -8.57,-9.59 -11.81,-10.72 -7.44,-3.11 -40.52,13.32 -42.89,-4.23 2.11,1.16 4.35,0.98 4.18,0 -0.45,-2.71 -9.84,-8.08 -7.2,-14.66 1.93,2.49 4.08,2.78 5.26,1.55 0.83,-0.71 -4.77,-10.25 0.7,-13.13 0.8,3.79 2.01,5.1 3.76,4.52 3.59,-1.19 5.16,-5.98 12.39,-3.55 7.5,2.97 11.26,13.72 5.83,18.97 -4.88,4.73 -9.77,-0.27 -9.55,-4.39 5.81,6.79 10.81,-4.97 2.77,-8.61 -2.41,-1.21 -5.54,-1.33 -7.62,0.27 -8.04,6.23 -1.96,17.52 5.64,18.96 7.61,1.62 20.83,-1.91 28.56,0.82 4.72,1.07 11.98,7.83 12.96,12.99 1.86,7.1 0.85,16.15 -3.06,19.72l-1.48 -2.09z"/>
    <path class="fil7" d="M483.57 498.3c-4.71,-5.91 -13.14,-13.52 -6.89,-20.35 -0.1,1.79 1.16,3.12 1.56,2.75 1.13,-1.05 1.16,-4.65 5.07,-5.44 -0.58,1.67 0.84,3.45 1.78,3.62 0.59,0.17 3.44,-3.37 6.49,-1.7 -1.54,1.56 -2.11,2.8 -1.3,3.44 1.66,1.32 3.32,2.24 4.41,6.39 0.93,4.44 -1.34,7.22 -6.15,6.16 -3.73,-0.82 -5.38,-5.08 -2.39,-7.34 -0.31,4.66 6.96,6.87 6.19,1.96 -0.38,-2.32 -2.78,-4.78 -4.18,-5.26 -5.41,-1.84 -9.45,2.37 -7.77,6.38 0.99,2.56 4.05,6.12 6.36,9.04 4.29,5.42 9.36,10.52 0.97,17.61 1.56,-6.52 2.28,-9.19 -4.15,-17.26z"/>
    <path class="fil7" d="M467.34 514.29c-6.59,-5.26 -14.36,-13.88 -20.46,-9.08 1.8,-0.08 3.44,2.16 3.06,2.55 -1.05,1.11 -5,0 -5.85,3.91 1.68,-0.55 3.65,1.36 3.81,2.3 0.16,0.6 -3.63,2.51 -2,5.58 1.58,-1.51 2.43,-0.91 3.06,-0.09 1.28,1.67 2.25,5.25 6.39,6.4 4.42,0.99 8.04,-1.44 7.06,-6.27 -0.76,-3.74 -5.28,-6.87 -7.58,-3.92 4.67,-0.24 7.04,8.36 2.15,7.51 -2.32,-0.42 -5.02,-3.12 -5.47,-4.53 -2.25,-6.25 1.21,-9.95 6.49,-7.68 2.53,1.03 6.06,4.14 8.94,6.49 5.36,4.37 9.71,10.19 16.92,1.9 -6.55,1.47 -8.47,1.36 -16.52,-5.07z"/>
    <path class="fil6" d="M464.43 609.26c11.61,-10.9 24.53,-12.88 36.25,-9.98 -4.78,-8.6 -21.56,-13.66 -33.42,-7.74 1.23,1.1 2.49,1.98 3.17,3.19 -3.62,0.24 -8.06,2.18 -11.37,4.37 2.41,0.89 5.23,1.85 7.87,2.33 -1.36,2.52 -1.88,5.34 -2.5,7.83z"/>
    <path class="fil6" d="M509.9 630.5c2.59,-12.27 10.1,-20.84 19.08,-26.27 -7.06,-1.5 -20.32,5.81 -25.34,15.74 1.3,-0.17 2.53,-0.47 3.52,-0.27 -2.25,2.25 -4.26,5.83 -5.41,8.86 1.98,-0.96 4.26,-2.14 6.2,-3.45 0.26,2.06 1.21,3.78 1.95,5.39z"/>
    <path class="fil6" d="M576.84 591.61c-12.08,-3.33 -23.15,-0.58 -32.08,4.91 1.9,-6.96 14.47,-15.39 25.6,-15.31 -0.75,1.08 -1.58,2.04 -1.85,3.01 3.03,-0.97 7.12,-1.11 10.35,-0.75 -1.76,1.32 -3.86,2.81 -5.9,3.93 1.71,1.18 2.79,2.81 3.88,4.21z"/>
    <path class="fil8" d="M368.27 49.54c-11.53,18.39 -21.77,66.74 -12.23,78.01 14.18,16.75 -2.5,-47.46 74.32,-65.8 11.74,-2.8 50.33,17.67 56.13,13.77 6.07,-4.09 7.69,-9.39 10.15,-17.16 -65.96,-43.59 -98.18,-52.85 -128.37,-8.82z"/>
    <path class="fil9" d="M576 44.53c22.13,49.5 3.58,41.47 -4.53,39.33 -8.28,-2.19 -29.43,-24.27 -34.94,-33.18 -1.07,-1.72 2.83,-14.81 0.7,-14.54 -10.03,1.27 -21.34,7.24 -34.49,23.06 29.33,-48.24 61.39,-31.55 73.26,-14.67z"/>
    <path class="fil10" d="M427.11 37.24c20,0.34 26.71,-10.92 71.22,-13.82 -38.99,-10.43 -59.35,-3.06 -71.22,13.82z"/>
    <path class="fil11" d="M405.23 26.81c22.55,4.58 21.54,-3.97 57.15,-21.87 -39.16,-2.89 -46.29,6.68 -57.15,21.87z"/>
    <path class="fil12" d="M343.01 760.31l94.28 21.6c4.83,-19.07 30.1,-48.82 -6.11,-68 4.62,19.36 -20.89,44.07 -88.17,46.4z"/>
    <path class="fil13" d="M451.81 764.18l102.7 -7.06 11.68 -78.75c-11.72,-2.17 -21.53,-16.82 -33.25,-19 4.61,40.64 -19.54,90.22 -81.13,104.81z"/>
   </g>
  </g>
  <path class="fil4" d="M492.1 473.69c67.52,-139.95 192.94,-278.47 73.8,-430.26 -6.28,-8 -25.17,-24.18 -37.71,-19.95 0,-3.12 -13.66,-4.45 -17.85,-3.89 -9.55,-11.49 -65.04,-27.33 -86.92,-15.28 -63.48,-0.16 -82.19,23.24 -93.95,38.84 -54.56,29.11 -74.92,100.34 -65,166.61 12.37,82.71 72.93,170.97 117.2,259.1 -6.73,7.99 -57.63,126.46 -53.08,193.28 1.37,11.59 3.25,74.14 61.45,86.44 8.57,1.81 17.82,0.52 29.18,-0.24 59.79,26.34 115.8,0.04 131.55,-28.19 17.68,-31.69 19.9,-73.3 8.38,-107.98 -14.78,-44.52 -35.05,-83.83 -67.05,-138.48zm-6.84 -11.75c-38.77,-66.2 -89.01,-139.13 -114.65,-210.2 -24.23,-67.16 -18.63,-116.98 18.97,-160.76 30.61,-36.9 58.71,-34.91 104.45,-20.67 14.08,-9.56 34.66,-18.35 42.24,-13.46 101.15,65.22 48.97,211.5 -1.47,308.95 -24.34,47.03 -47.43,87.14 -49.54,96.14zm-99.79 14.58c31.67,63.05 77.22,178.74 8.45,230.38 -26.32,17.77 -51.92,-9.76 -55.5,-30.89 -6.69,-39.57 17.5,-143.23 47.05,-199.49z"/>
  <path class="fil14" d="M284.32 98.89c23.56,-30.87 26.46,-38.57 62.07,-56.48 -41.37,2.72 -52.91,38.57 -62.07,56.48z"/>
  <path class="fil15" d="M288.05 107.03c1.58,9.48 30.22,9.27 35.12,5.17 12.17,-10.2 16.2,-23.81 32.89,-65.72 -44.25,8.48 -58.85,42.64 -68.01,60.55z"/>
  <path class="fil16" d="M340.15 36.53c21.72,3.56 25.16,-5.7 59.49,-22.96 -37.75,-2.78 -49.03,8.31 -59.49,22.96z"/>
  <rect class="fil6" transform="matrix(0.750795 1.18652 -1.18651 0.750797 330.467 82.4577)" width="8.4" height="8.4"/>
  <rect class="fil6" transform="matrix(1.02189 0.974056 -0.974053 1.02189 312.842 180.243)" width="8.4" height="8.4"/>
  <circle class="fil6" cx="316.62" cy="139.24" r="27.47"/>
  <polygon class="fil17" points="314.68,131.03 319.63,132.99 324.59,134.95 324.26,140.27 323.92,145.59 318.77,146.92 313.6,148.25 310.75,143.75 307.89,139.25 311.28,135.14 "/>
  <path class="fil17" d="M319.93 151.72l4.96 1.96 3.3 1.32 -0.62 2.72 -11.47 2.95c-0.46,-0.68 -1.23,-1.46 -1.68,-2.17l2.12 -2.67 3.39 -4.11z"/>
  <path class="fil17" d="M328.75 140.33l3.37 -4.13 2.26 -2.74 2.41 1.42 -0.68 11.82c-0.78,0.23 -1.76,0.73 -2.58,0.94l-1.89 -2.83 -2.89 -4.48z"/>
  <path class="fil17" d="M306.23 145.97l-5.04 -1.74 -3.37 -1.15 -1.3 2.47 6.79 9.7c0.78,-0.21 1.88,-0.3 2.69,-0.55l0.12 -3.4 0.11 -5.33z"/>
  <path class="fil17" d="M307.13 130.93l0.59 -5.3 0.37 -3.53 -2.69 -0.72 -7.96 8.76c0.38,0.72 0.71,1.77 1.13,2.5l3.35 -0.63 5.21 -1.08z"/>
  <path class="fil17" d="M320.67 127.66l4.96 -1.96 3.3 -1.32 -0.63 -2.72 -11.46 -2.94c-0.46,0.68 -1.23,1.46 -1.68,2.17l2.12 2.67 3.39 4.1z"/>
  <polygon class="fil18" points="345.33,454.57 356.6,447.31 353.89,443.1 355.39,442.14 361.9,452.25 360.4,453.22 357.69,449 346.42,456.26 "/>
  <path id="1" class="fil18" d="M350.23 462.18l12.77 -8.22 1.63 2.53 -7.09 8.84c-0.66,0.82 -1.16,1.43 -1.5,1.83 0.56,-0.16 1.39,-0.37 2.49,-0.64l10.86 -2.64 1.45 2.26 -12.77 8.22 -1.04 -1.62 10.68 -6.88 -13.08 3.15 -0.98 -1.52 8.51 -10.69 -10.88 7 -1.05 -1.62z"/>
  <path class="fil6" d="M383.56 1030.72c-7.02,-6.73 -8.22,-28.01 -4.45,-35.92 2.81,-5.92 14.43,-6.29 27.67,-5.53 -2.77,12.25 -12.35,40.87 -23.22,41.45zm-92.42 -55.85l-28.02 -0.06 0.37 -23.53c-8.89,2.95 -16.44,7.53 -21.8,13.35l0.04 10.3 -12.93 -0.02 -0.39 17.03 13.02 -0.15 -0.37 30.89c-0.09,6.9 2.3,12.87 7.11,17.78 4.81,4.92 10.69,7.4 17.54,7.41l108.35 0.17c20.83,0.03 30.79,-31.94 33,-33.74l-0.5 34.35 21.32 -0.41 -0.92 -72.95c-23.47,-4.24 -47.69,-2.16 -62.22,9.81 -8.35,6.88 -14.44,35.61 -5.61,45.86 -107.97,-0.83 -94.69,8.75 -95.89,-38.88l24.51 -0.03 3.39 -17.18z"/>
  <path class="fil6" d="M97.13 1027.15c-11.47,-4.64 -25.31,-15.89 -29.03,-24.86 -14.92,-36.71 41.41,-52.8 46.05,-13.24 2.31,19.82 -10.03,29.22 -17.02,38.1zm6.16 3.75c7.13,-6.19 20.08,-4.07 29.26,-23.64 26.11,-55.65 -55.36,-80.14 -82.67,-38.09 -8.08,12.43 -8.63,32.52 -1.4,46.18 13.32,25.2 86.2,55.1 102.34,65.22 0.66,-30.61 -9.78,-30.89 -47.53,-49.67z"/>
  <polygon class="fil6" points="281.13,905.12 271.65,846.61 249.73,846.54 258.6,888.56 267.15,926.46 294.43,926.6 305.35,867 315.83,926.37 343.4,926.43 361.1,846.41 340.23,846.13 330.97,902.76 319.39,846.54 292.3,846.73 "/>
  <path class="fil6" d="M647.79 979.46c9.82,14.58 6.08,44.13 -8.77,57.36 -18.32,16.33 -38.27,-19.4 -33.47,-46.29 3.63,-20.36 31.96,-26.34 42.24,-11.07zm-64.31 22.91c3.2,28.42 34,48.49 45.81,48.07 11.55,-0.41 42.11,-17.48 45.99,-47.78 8.43,-65.94 -99.25,-66.52 -91.8,-0.29z"/>
  <path class="fil6" d="M605.28 862.31c18.8,-0.15 31.79,3.31 31.99,23.82 0.21,21.41 -12.49,24.52 -32.79,24.26l0.8 -48.08zm-21.36 64.06c37.87,1.88 74.88,2.1 74.96,-40.26 0.09,-42.54 -36.99,-41.37 -75.09,-39.24l0.13 79.5z"/>
  <path class="fil6" d="M393.31 862.17c24.62,-12.9 32.09,37.94 14.19,46.52 -24.94,11.96 -33.46,-36.42 -14.19,-46.52zm-32.11 33.83c7.67,46.75 86.7,43.43 78.13,-18.64 -3.38,-24.45 -22.46,-36.71 -49.03,-31.93 -23.08,4.14 -33.39,24.36 -29.1,50.57z"/>
  <path class="fil6" d="M467.47 860.48c8.87,-0.02 19.99,-0.68 20.51,8.57 0.59,10.64 -13.15,9.17 -21.02,9.15l0.51 -17.72zm27.13 25.57c17.28,-4.49 18.95,-26.19 5.89,-35.16 -10.5,-7.2 -39.87,-4.33 -54.42,-4.31l0.11 79.81 20.78 0.17 0.93 -33.37c15.04,-1.63 16.78,9.43 22.39,33.35l22.12 -0.15c-1.23,-12.56 -9.65,-34.91 -17.8,-40.34z"/>
  <path class="fil6" d="M174.23 1030.54c-4.99,-1.58 -8.95,-22.02 -5.91,-33.05 2.61,-9.43 16.84,-8.8 28.18,-7.72 -4.13,17.85 -14.49,43.25 -22.27,40.77zm43.99 -56.76c-38.73,-1.76 -72.22,-3.82 -72.58,42.89 -0.27,35.69 24.24,44.2 40.61,19.9 3.11,-4.62 7.9,-14.88 10.72,-18.66l-0.06 30.14 21.34 -0.52 -0.03 -73.75z"/>
  <path class="fil6" d="M197.22 870.72l8.77 30.33 -19 -0.07 10.23 -30.26zm-13.75 46.05l26.51 0.09 4.17 10.35 23.98 -0.07 -28.81 -79.51 -25.13 -0.14 -28.09 79.86 23.51 -0.2 3.86 -10.38z"/>
  <path class="fil6" d="M758.52 846.59c0.1,14.29 -1.62,48 1.23,59.83 6.96,28.96 62.67,30.94 67.43,-3.85 1.21,-8.85 1.29,-47.13 -0.04,-55.88l-20 0.25c-2.84,20.07 5.9,51.77 -8.21,63.52 -18.15,4.19 -19.37,-7.74 -19.45,-22.54 -0.07,-13.59 -0.08,-27.4 0.13,-41.19l-21.09 -0.14z"/>
  <path class="fil6" d="M763.39 977.11c10.95,-2.97 24.21,-9.18 36.75,-4.74 10.39,3.68 13.47,19.42 5.29,29.23 -10.27,12.33 -30.45,22.06 -46.09,31.96l1.84 15.03 69.8 -0.61c2.59,-5.33 3.8,-10.59 3.32,-16.65l-56.62 -0.4c1.69,-4.88 39.75,-7.69 50.85,-33.53 18.85,-43.89 -37.74,-52.33 -58.92,-37.35l-6.22 17.06z"/>
  <path class="fil6" d="M858.17 861.83c9.61,-0.08 17.28,-0.48 17.43,10.25 0.14,10.54 -8.19,11.48 -17.91,11.17l0.48 -21.42zm-0.23 36.66c12.43,-0.32 23.25,-0.15 31.19,-7.16 6.64,-5.84 10.19,-17.55 6.17,-28.97 -6.74,-19.17 -37.31,-15.76 -59.05,-15.76l0.15 79.99 21.36 -0.28 0.18 -27.82z"/>
  <polygon class="fil6" points="169.36,847.12 109.21,847.09 109.22,927.41 134.11,926.79 134.42,898.67 151.91,898.51 157.64,880.59 134.29,880.57 134.25,865.01 163.41,864.62 "/>
  <polygon class="fil6" points="60.15,847.13 0.02,847 0,927.44 24.77,926.67 25.09,898.74 42.38,898.37 48.23,880.55 24.98,880.5 24.83,865.05 54.09,864.54 "/>
  <path class="fil6" d="M751.98 849.22c-34.36,-9.83 -68.92,0.01 -68.1,38.68 0.78,36.49 34.35,44.44 68.29,36.96l-0.34 -15.85c-7.46,0.66 -46.79,11.47 -46.39,-22.84 0.42,-36.45 39.73,-21.49 45.47,-20.31l1.07 -16.64z"/>
  <polygon class="fil6" points="520.78,926.76 574.5,926.06 574.44,910.63 542.36,910.19 543.1,846.62 520.65,846.59 "/>
  <path class="fil6" d="M466.35 1047.84c-0.13,-22.36 6.17,-57.32 30.12,-51.48l-2.43 -23.16c-20.28,2.22 -25.22,20.96 -28.01,33.82l-2.08 -31.66 -21.03 -0.19c2.61,20.31 1.69,48.03 1.31,73.28l22.12 -0.61z"/>
  <polygon class="fil6" points="67.81,927.29 92.58,926.84 92.61,847.22 67.83,847.12 67.78,912.47 "/>
  <polygon class="fil6" points="617.36,1001.61 629.71,1012.95 642.27,1001.41 629.69,990.16 "/>
  <path class="fil6" d="M681.8 977.11c10.95,-2.97 24.21,-9.18 36.75,-4.74 10.39,3.68 13.47,19.42 5.29,29.23 -10.27,12.33 -30.45,22.06 -46.09,31.96l1.84 15.03 69.8 -0.61c2.59,-5.33 3.8,-10.59 3.32,-16.65l-56.62 -0.4c1.69,-4.88 39.75,-7.69 50.85,-33.53 18.85,-43.89 -37.74,-52.33 -58.92,-37.35l-6.22 17.06z"/>
  <path class="fil6" d="M504.47 977.11c10.96,-2.97 24.22,-9.18 36.75,-4.74 10.4,3.68 13.48,19.42 5.29,29.23 -10.27,12.33 -30.44,22.06 -46.08,31.96l1.84 15.03 69.8 -0.61c2.59,-5.33 3.8,-10.59 3.32,-16.65l-56.62 -0.4c1.69,-4.88 39.75,-7.69 50.85,-33.53 18.85,-43.89 -37.74,-52.33 -58.93,-37.35l-6.22 17.06z"/>
 </g>
</svg>
